# Blender 4.3.2
# www.blender.org
mtllib torch_bars.mtl
o Torch_Bars
v 0.035240 0.208532 -0.029257
v 0.035240 0.217528 -0.029257
v 0.037117 0.208532 -0.029740
v 0.037117 0.217528 -0.029740
v 0.045479 0.208532 0.010550
v 0.045479 0.217528 0.010550
v 0.047356 0.208532 0.010068
v 0.047356 0.217528 0.010068
v 0.004862 0.242633 -0.045420
v 0.004862 0.172239 -0.045420
v 0.012759 0.242633 -0.041617
v 0.012759 0.172239 -0.041617
v 0.003904 0.242633 -0.043430
v 0.003904 0.172239 -0.043430
v 0.011800 0.242633 -0.039626
v 0.011800 0.172239 -0.039626
v 0.008811 0.252633 -0.043518
v 0.008811 0.172239 -0.043518
v 0.007852 0.252633 -0.041528
v 0.007852 0.172239 -0.041528
v 0.022326 0.242633 -0.036949
v 0.022326 0.172239 -0.036949
v 0.030222 0.242633 -0.033146
v 0.030222 0.172239 -0.033146
v 0.021367 0.242633 -0.034959
v 0.021367 0.172239 -0.034959
v 0.029264 0.242633 -0.031155
v 0.029264 0.172239 -0.031155
v 0.026274 0.252633 -0.035048
v 0.026274 0.172239 -0.035048
v 0.025315 0.252633 -0.033057
v 0.025315 0.172239 -0.033057
v 0.038611 0.242885 -0.023752
v 0.038611 0.172491 -0.023752
v 0.040638 0.242885 -0.015224
v 0.040638 0.172491 -0.015224
v 0.036462 0.242885 -0.023241
v 0.036462 0.172491 -0.023241
v 0.038489 0.242885 -0.014713
v 0.038489 0.172491 -0.014713
v 0.039624 0.252885 -0.019488
v 0.039624 0.172491 -0.019488
v 0.037475 0.252885 -0.018977
v 0.037475 0.172491 -0.018977
v 0.042771 0.242885 -0.004674
v 0.042771 0.172491 -0.004674
v 0.044798 0.242885 0.003853
v 0.044798 0.172491 0.003853
v 0.040622 0.242885 -0.004163
v 0.040622 0.172491 -0.004163
v 0.042649 0.242885 0.004364
v 0.042649 0.172491 0.004364
v 0.043784 0.252885 -0.000410
v 0.043784 0.172491 -0.000410
v 0.041635 0.252885 0.000100
v 0.041635 0.172491 0.000100
v 0.040507 0.242885 0.016253
v 0.040507 0.172491 0.016253
v 0.034992 0.242885 0.023066
v 0.034992 0.172491 0.023066
v 0.038790 0.242885 0.014863
v 0.038790 0.172491 0.014863
v 0.033275 0.242885 0.021676
v 0.033275 0.172491 0.021676
v 0.037750 0.252885 0.019659
v 0.037750 0.172491 0.019659
v 0.036033 0.252885 0.018269
v 0.036033 0.172491 0.018269
v 0.030250 0.242885 0.031000
v 0.030250 0.172491 0.031000
v 0.024735 0.242885 0.037812
v 0.024735 0.172491 0.037812
v 0.028533 0.242885 0.029610
v 0.028533 0.172491 0.029610
v 0.023018 0.242885 0.036422
v 0.023018 0.172491 0.036422
v 0.027493 0.252885 0.034406
v 0.027493 0.172491 0.034406
v 0.025775 0.252885 0.033016
v 0.025775 0.172491 0.033016
v 0.013983 0.242885 0.042933
v 0.013983 0.172491 0.042933
v 0.005218 0.242885 0.042931
v 0.005218 0.172491 0.042931
v 0.013984 0.242885 0.040724
v 0.013984 0.172491 0.040724
v 0.005219 0.242885 0.040722
v 0.005219 0.172491 0.040722
v 0.009601 0.252885 0.042932
v 0.009601 0.172491 0.042932
v 0.009601 0.252885 0.040723
v 0.009601 0.172491 0.040723
v -0.005426 0.242885 0.042876
v -0.005426 0.172491 0.042876
v -0.014191 0.242885 0.042875
v -0.014191 0.172491 0.042875
v -0.005425 0.242885 0.040667
v -0.005425 0.172491 0.040667
v -0.014191 0.242885 0.040666
v -0.014191 0.172491 0.040666
v -0.009808 0.252885 0.042876
v -0.009808 0.172491 0.042876
v -0.009808 0.252885 0.040667
v -0.009808 0.172491 0.040667
v -0.025147 0.242885 0.037331
v -0.025147 0.172491 0.037331
v -0.030640 0.242885 0.030500
v -0.030640 0.172491 0.030500
v -0.023426 0.242885 0.035947
v -0.023426 0.172491 0.035947
v -0.028918 0.242885 0.029116
v -0.028918 0.172491 0.029116
v -0.027893 0.252885 0.033916
v -0.027893 0.172491 0.033916
v -0.026172 0.252885 0.032532
v -0.026172 0.172491 0.032532
v -0.037268 0.242885 0.022172
v -0.037268 0.172491 0.022172
v -0.042760 0.242885 0.015341
v -0.042760 0.172491 0.015341
v -0.035546 0.242885 0.020787
v -0.035546 0.172491 0.020787
v -0.041038 0.242885 0.013956
v -0.041038 0.172491 0.013956
v -0.040014 0.252885 0.018756
v -0.040014 0.172491 0.018756
v -0.038292 0.252885 0.017372
v -0.038292 0.172491 0.017372
v -0.045287 0.242885 0.004975
v -0.045287 0.172491 0.004975
v -0.043277 0.242885 -0.003557
v -0.043277 0.172491 -0.003557
v -0.043137 0.242885 0.005481
v -0.043137 0.172491 0.005481
v -0.041127 0.242885 -0.003050
v -0.041127 0.172491 -0.003050
v -0.044282 0.252885 0.000709
v -0.044282 0.172491 0.000709
v -0.042132 0.252885 0.001216
v -0.042132 0.172491 0.001216
v -0.040783 0.242885 -0.013905
v -0.040783 0.172491 -0.013905
v -0.038773 0.242885 -0.022436
v -0.038773 0.172491 -0.022436
v -0.038633 0.242885 -0.013398
v -0.038633 0.172491 -0.013398
v -0.036623 0.242885 -0.021930
v -0.036623 0.172491 -0.021930
v -0.039778 0.252885 -0.018171
v -0.039778 0.172491 -0.018171
v -0.037628 0.252885 -0.017664
v -0.037628 0.172491 -0.017664
v -0.030926 0.242885 -0.032740
v -0.030926 0.172491 -0.032740
v -0.023062 0.242885 -0.036612
v -0.023062 0.172491 -0.036612
v -0.029950 0.242885 -0.030759
v -0.029950 0.172491 -0.030759
v -0.022087 0.242885 -0.034630
v -0.022087 0.172491 -0.034630
v -0.026994 0.252885 -0.034676
v -0.026994 0.172491 -0.034676
v -0.026019 0.252885 -0.032694
v -0.026019 0.172491 -0.032694
v -0.013489 0.242885 -0.041265
v -0.013489 0.172491 -0.041265
v -0.005625 0.242885 -0.045137
v -0.005625 0.172491 -0.045137
v -0.012513 0.242885 -0.039283
v -0.012513 0.172491 -0.039283
v -0.004650 0.242885 -0.043155
v -0.004650 0.172491 -0.043155
v -0.009557 0.252885 -0.043201
v -0.009557 0.172491 -0.043201
v -0.008582 0.252885 -0.041219
v -0.008582 0.172491 -0.041219
v -0.036333 0.208532 -0.027864
v -0.036333 0.217528 -0.027864
v -0.037205 0.208532 -0.029594
v -0.037205 0.217528 -0.029594
v 0.000366 0.208532 -0.046375
v 0.000366 0.217528 -0.046375
v -0.000506 0.208532 -0.048105
v -0.000506 0.217528 -0.048105
v -0.000984 0.208532 -0.046315
v -0.000984 0.217528 -0.046315
v -0.000133 0.208532 -0.048056
v -0.000133 0.217528 -0.048056
v 0.035948 0.208532 -0.028273
v 0.035948 0.217528 -0.028273
v 0.036799 0.208532 -0.030014
v 0.036799 0.217528 -0.030014
v -0.045726 0.208532 0.010776
v -0.045726 0.217528 0.010776
v -0.047606 0.208532 0.010304
v -0.047606 0.217528 0.010304
v -0.035714 0.208532 -0.029090
v -0.035714 0.217528 -0.029090
v -0.037594 0.208532 -0.029561
v -0.037594 0.217528 -0.029561
v -0.019752 0.208532 0.041473
v -0.019752 0.217528 0.041473
v -0.021245 0.208532 0.042708
v -0.021245 0.217528 0.042708
v -0.045958 0.208532 0.009807
v -0.045958 0.217528 0.009807
v -0.047451 0.208532 0.011043
v -0.047451 0.217528 0.011043
v 0.020510 0.208532 0.041256
v 0.020510 0.217528 0.041256
v 0.020509 0.208532 0.043194
v 0.020509 0.217528 0.043194
v -0.020594 0.208532 0.041249
v -0.020594 0.217528 0.041249
v -0.020594 0.208532 0.043187
v -0.020594 0.217528 0.043187
v 0.045447 0.208532 0.009608
v 0.045447 0.217528 0.009608
v 0.046946 0.208532 0.010836
v 0.046946 0.217528 0.010836
v 0.019403 0.208532 0.041407
v 0.019403 0.217528 0.041407
v 0.020902 0.208532 0.042635
v 0.020902 0.217528 0.042635
vn -0.2491 -0.0000 -0.9685
vn 0.9685 -0.0000 -0.2491
vn 0.2491 -0.0000 0.9685
vn -0.9685 -0.0000 0.2491
vn -0.0000 -1.0000 -0.0000
vn -0.0000 1.0000 -0.0000
vn -0.4339 -0.0000 0.9009
vn -0.9009 -0.0000 -0.4339
vn 0.4339 -0.0000 -0.9009
vn 0.9009 -0.0000 0.4339
vn 0.8252 -0.4014 0.3975
vn -0.8252 -0.4014 -0.3975
vn -0.9729 -0.0000 0.2312
vn -0.2312 -0.0000 -0.9729
vn 0.9729 -0.0000 -0.2312
vn 0.2312 -0.0000 0.9729
vn 0.2118 -0.4014 0.8911
vn -0.2118 -0.4014 -0.8911
vn -0.7773 -0.0000 -0.6292
vn 0.6292 -0.0000 -0.7773
vn 0.7773 -0.0000 0.6292
vn -0.6292 -0.0000 0.7773
vn -0.5763 -0.4014 0.7119
vn 0.5763 -0.4014 -0.7119
vn 0.0002 -0.0000 -1.0000
vn 1.0000 -0.0000 0.0002
vn -0.0002 -0.0000 1.0000
vn -1.0000 -0.0000 -0.0002
vn -0.9159 -0.4014 -0.0001
vn 0.9159 -0.4014 0.0001
vn 0.7793 -0.0000 -0.6266
vn 0.6266 -0.0000 0.7793
vn -0.7793 -0.0000 0.6266
vn -0.6266 -0.0000 -0.7793
vn -0.5739 -0.4014 -0.7138
vn 0.5739 -0.4014 0.7138
vn 0.9733 -0.0000 0.2294
vn -0.2294 -0.0000 0.9733
vn -0.9733 -0.0000 -0.2294
vn 0.2294 -0.0000 -0.9733
vn 0.2101 -0.4014 -0.8915
vn -0.2101 -0.4014 0.8915
vn 0.4417 -0.0000 0.8972
vn -0.8972 -0.0000 0.4417
vn -0.4417 -0.0000 -0.8972
vn 0.8972 -0.0000 -0.4417
vn 0.8217 -0.4014 -0.4045
vn -0.8217 -0.4014 0.4045
vn -0.8929 -0.0000 0.4504
vn -0.4504 -0.0000 -0.8929
vn 0.8929 -0.0000 -0.4504
vn 0.4504 -0.0000 0.8929
vn -0.8985 -0.0000 -0.4389
vn 0.4389 -0.0000 -0.8985
vn 0.8985 -0.0000 0.4389
vn -0.4389 -0.0000 0.8985
vn -0.2436 -0.0000 0.9699
vn -0.9699 -0.0000 -0.2436
vn 0.2436 -0.0000 -0.9699
vn 0.9699 -0.0000 0.2436
vn 0.6376 -0.0000 0.7704
vn -0.7704 -0.0000 0.6376
vn -0.6376 -0.0000 -0.7704
vn 0.7704 -0.0000 -0.6376
vn 0.6336 -0.0000 -0.7736
vn 0.7736 -0.0000 0.6336
vn -0.6336 -0.0000 0.7736
vn -0.7736 -0.0000 -0.6336
vt 0.375000 0.000000
vt 0.625000 0.000000
vt 0.625000 0.250000
vt 0.375000 0.250000
vt 0.625000 0.500000
vt 0.375000 0.500000
vt 0.625000 0.750000
vt 0.375000 0.750000
vt 0.625000 1.000000
vt 0.375000 1.000000
vt 0.125000 0.500000
vt 0.125000 0.750000
vt 0.875000 0.500000
vt 0.875000 0.750000
vt 0.375000 0.125000
vt 0.625000 0.125000
vt 0.375000 0.625000
vt 0.625000 0.625000
vt 0.125000 0.625000
vt 0.875000 0.625000
s 0
f 1/1/1 2/2/1 4/3/1 3/4/1
f 3/4/2 4/3/2 8/5/2 7/6/2
f 7/6/3 8/5/3 6/7/3 5/8/3
f 5/8/4 6/7/4 2/9/4 1/10/4
f 3/11/5 7/6/5 5/8/5 1/12/5
f 8/5/6 4/13/6 2/14/6 6/7/6
f 17/15/7 18/16/7 12/3/7 11/4/7
f 11/4/8 12/3/8 16/5/8 15/6/8
f 19/17/9 20/18/9 14/7/9 13/8/9
f 13/8/10 14/7/10 10/9/10 9/10/10
f 17/19/11 19/17/11 13/8/11 9/12/11
f 20/18/6 18/20/6 10/14/6 14/7/6
f 16/5/6 12/13/6 18/20/6 20/18/6
f 11/11/12 15/6/12 19/17/12 17/19/12
f 15/6/9 16/5/9 20/18/9 19/17/9
f 9/1/7 10/2/7 18/16/7 17/15/7
f 29/15/7 30/16/7 24/3/7 23/4/7
f 23/4/8 24/3/8 28/5/8 27/6/8
f 31/17/9 32/18/9 26/7/9 25/8/9
f 25/8/10 26/7/10 22/9/10 21/10/10
f 29/19/11 31/17/11 25/8/11 21/12/11
f 32/18/6 30/20/6 22/14/6 26/7/6
f 28/5/6 24/13/6 30/20/6 32/18/6
f 23/11/12 27/6/12 31/17/12 29/19/12
f 27/6/9 28/5/9 32/18/9 31/17/9
f 21/1/7 22/2/7 30/16/7 29/15/7
f 41/15/13 42/16/13 36/3/13 35/4/13
f 35/4/14 36/3/14 40/5/14 39/6/14
f 43/17/15 44/18/15 38/7/15 37/8/15
f 37/8/16 38/7/16 34/9/16 33/10/16
f 41/19/17 43/17/17 37/8/17 33/12/17
f 44/18/6 42/20/6 34/14/6 38/7/6
f 40/5/6 36/13/6 42/20/6 44/18/6
f 35/11/18 39/6/18 43/17/18 41/19/18
f 39/6/15 40/5/15 44/18/15 43/17/15
f 33/1/13 34/2/13 42/16/13 41/15/13
f 53/15/13 54/16/13 48/3/13 47/4/13
f 47/4/14 48/3/14 52/5/14 51/6/14
f 55/17/15 56/18/15 50/7/15 49/8/15
f 49/8/16 50/7/16 46/9/16 45/10/16
f 53/19/17 55/17/17 49/8/17 45/12/17
f 56/18/6 54/20/6 46/14/6 50/7/6
f 52/5/6 48/13/6 54/20/6 56/18/6
f 47/11/18 51/6/18 55/17/18 53/19/18
f 51/6/15 52/5/15 56/18/15 55/17/15
f 45/1/13 46/2/13 54/16/13 53/15/13
f 65/15/19 66/16/19 60/3/19 59/4/19
f 59/4/20 60/3/20 64/5/20 63/6/20
f 67/17/21 68/18/21 62/7/21 61/8/21
f 61/8/22 62/7/22 58/9/22 57/10/22
f 65/19/23 67/17/23 61/8/23 57/12/23
f 68/18/6 66/20/6 58/14/6 62/7/6
f 64/5/6 60/13/6 66/20/6 68/18/6
f 59/11/24 63/6/24 67/17/24 65/19/24
f 63/6/21 64/5/21 68/18/21 67/17/21
f 57/1/19 58/2/19 66/16/19 65/15/19
f 77/15/19 78/16/19 72/3/19 71/4/19
f 71/4/20 72/3/20 76/5/20 75/6/20
f 79/17/21 80/18/21 74/7/21 73/8/21
f 73/8/22 74/7/22 70/9/22 69/10/22
f 77/19/23 79/17/23 73/8/23 69/12/23
f 80/18/6 78/20/6 70/14/6 74/7/6
f 76/5/6 72/13/6 78/20/6 80/18/6
f 71/11/24 75/6/24 79/17/24 77/19/24
f 75/6/21 76/5/21 80/18/21 79/17/21
f 69/1/19 70/2/19 78/16/19 77/15/19
f 89/15/25 90/16/25 84/3/25 83/4/25
f 83/4/26 84/3/26 88/5/26 87/6/26
f 91/17/27 92/18/27 86/7/27 85/8/27
f 85/8/28 86/7/28 82/9/28 81/10/28
f 89/19/29 91/17/29 85/8/29 81/12/29
f 92/18/6 90/20/6 82/14/6 86/7/6
f 88/5/6 84/13/6 90/20/6 92/18/6
f 83/11/30 87/6/30 91/17/30 89/19/30
f 87/6/27 88/5/27 92/18/27 91/17/27
f 81/1/25 82/2/25 90/16/25 89/15/25
f 101/15/25 102/16/25 96/3/25 95/4/25
f 95/4/26 96/3/26 100/5/26 99/6/26
f 103/17/27 104/18/27 98/7/27 97/8/27
f 97/8/28 98/7/28 94/9/28 93/10/28
f 101/19/29 103/17/29 97/8/29 93/12/29
f 104/18/6 102/20/6 94/14/6 98/7/6
f 100/5/6 96/13/6 102/20/6 104/18/6
f 95/11/30 99/6/30 103/17/30 101/19/30
f 99/6/27 100/5/27 104/18/27 103/17/27
f 93/1/25 94/2/25 102/16/25 101/15/25
f 113/15/31 114/16/31 108/3/31 107/4/31
f 107/4/32 108/3/32 112/5/32 111/6/32
f 115/17/33 116/18/33 110/7/33 109/8/33
f 109/8/34 110/7/34 106/9/34 105/10/34
f 113/19/35 115/17/35 109/8/35 105/12/35
f 116/18/6 114/20/6 106/14/6 110/7/6
f 112/5/6 108/13/6 114/20/6 116/18/6
f 107/11/36 111/6/36 115/17/36 113/19/36
f 111/6/33 112/5/33 116/18/33 115/17/33
f 105/1/31 106/2/31 114/16/31 113/15/31
f 125/15/31 126/16/31 120/3/31 119/4/31
f 119/4/32 120/3/32 124/5/32 123/6/32
f 127/17/33 128/18/33 122/7/33 121/8/33
f 121/8/34 122/7/34 118/9/34 117/10/34
f 125/19/35 127/17/35 121/8/35 117/12/35
f 128/18/6 126/20/6 118/14/6 122/7/6
f 124/5/6 120/13/6 126/20/6 128/18/6
f 119/11/36 123/6/36 127/17/36 125/19/36
f 123/6/33 124/5/33 128/18/33 127/17/33
f 117/1/31 118/2/31 126/16/31 125/15/31
f 137/15/37 138/16/37 132/3/37 131/4/37
f 131/4/38 132/3/38 136/5/38 135/6/38
f 139/17/39 140/18/39 134/7/39 133/8/39
f 133/8/40 134/7/40 130/9/40 129/10/40
f 137/19/41 139/17/41 133/8/41 129/12/41
f 140/18/6 138/20/6 130/14/6 134/7/6
f 136/5/6 132/13/6 138/20/6 140/18/6
f 131/11/42 135/6/42 139/17/42 137/19/42
f 135/6/39 136/5/39 140/18/39 139/17/39
f 129/1/37 130/2/37 138/16/37 137/15/37
f 149/15/37 150/16/37 144/3/37 143/4/37
f 143/4/38 144/3/38 148/5/38 147/6/38
f 151/17/39 152/18/39 146/7/39 145/8/39
f 145/8/40 146/7/40 142/9/40 141/10/40
f 149/19/41 151/17/41 145/8/41 141/12/41
f 152/18/6 150/20/6 142/14/6 146/7/6
f 148/5/6 144/13/6 150/20/6 152/18/6
f 143/11/42 147/6/42 151/17/42 149/19/42
f 147/6/39 148/5/39 152/18/39 151/17/39
f 141/1/37 142/2/37 150/16/37 149/15/37
f 161/15/43 162/16/43 156/3/43 155/4/43
f 155/4/44 156/3/44 160/5/44 159/6/44
f 163/17/45 164/18/45 158/7/45 157/8/45
f 157/8/46 158/7/46 154/9/46 153/10/46
f 161/19/47 163/17/47 157/8/47 153/12/47
f 164/18/6 162/20/6 154/14/6 158/7/6
f 160/5/6 156/13/6 162/20/6 164/18/6
f 155/11/48 159/6/48 163/17/48 161/19/48
f 159/6/45 160/5/45 164/18/45 163/17/45
f 153/1/43 154/2/43 162/16/43 161/15/43
f 173/15/43 174/16/43 168/3/43 167/4/43
f 167/4/44 168/3/44 172/5/44 171/6/44
f 175/17/45 176/18/45 170/7/45 169/8/45
f 169/8/46 170/7/46 166/9/46 165/10/46
f 173/19/47 175/17/47 169/8/47 165/12/47
f 176/18/6 174/20/6 166/14/6 170/7/6
f 172/5/6 168/13/6 174/20/6 176/18/6
f 167/11/48 171/6/48 175/17/48 173/19/48
f 171/6/45 172/5/45 176/18/45 175/17/45
f 165/1/43 166/2/43 174/16/43 173/15/43
f 177/1/49 178/2/49 180/3/49 179/4/49
f 179/4/50 180/3/50 184/5/50 183/6/50
f 183/6/51 184/5/51 182/7/51 181/8/51
f 181/8/52 182/7/52 178/9/52 177/10/52
f 179/11/5 183/6/5 181/8/5 177/12/5
f 184/5/6 180/13/6 178/14/6 182/7/6
f 185/1/53 186/2/53 188/3/53 187/4/53
f 187/4/54 188/3/54 192/5/54 191/6/54
f 191/6/55 192/5/55 190/7/55 189/8/55
f 189/8/56 190/7/56 186/9/56 185/10/56
f 187/11/5 191/6/5 189/8/5 185/12/5
f 192/5/6 188/13/6 186/14/6 190/7/6
f 193/1/57 194/2/57 196/3/57 195/4/57
f 195/4/58 196/3/58 200/5/58 199/6/58
f 199/6/59 200/5/59 198/7/59 197/8/59
f 197/8/60 198/7/60 194/9/60 193/10/60
f 195/11/5 199/6/5 197/8/5 193/12/5
f 200/5/6 196/13/6 194/14/6 198/7/6
f 201/1/61 202/2/61 204/3/61 203/4/61
f 203/4/62 204/3/62 208/5/62 207/6/62
f 207/6/63 208/5/63 206/7/63 205/8/63
f 205/8/64 206/7/64 202/9/64 201/10/64
f 203/11/5 207/6/5 205/8/5 201/12/5
f 208/5/6 204/13/6 202/14/6 206/7/6
f 209/1/26 210/2/26 212/3/26 211/4/26
f 211/4/27 212/3/27 216/5/27 215/6/27
f 215/6/28 216/5/28 214/7/28 213/8/28
f 213/8/25 214/7/25 210/9/25 209/10/25
f 211/11/5 215/6/5 213/8/5 209/12/5
f 216/5/6 212/13/6 210/14/6 214/7/6
f 217/1/65 218/2/65 220/3/65 219/4/65
f 219/4/66 220/3/66 224/5/66 223/6/66
f 223/6/67 224/5/67 222/7/67 221/8/67
f 221/8/68 222/7/68 218/9/68 217/10/68
f 219/11/5 223/6/5 221/8/5 217/12/5
f 224/5/6 220/13/6 218/14/6 222/7/6
