# Blender 4.3.2
# www.blender.org
mtllib Table.mtl
o Table
v 6.048264 1.241808 -1.414047
v 6.048264 1.158192 -1.414047
v 6.048264 1.241808 1.414047
v 6.048264 1.158192 1.414047
v -6.048264 1.241808 -1.414047
v -6.048264 1.158192 -1.414047
v -6.048264 1.241808 1.414047
v -6.048264 1.158192 1.414047
v -6.048264 1.128013 -0.712591
v 6.048264 1.211629 -0.712591
v -6.048264 1.211629 -0.712591
v 6.048264 1.128013 -0.712591
v -6.048264 1.128013 0.749473
v 6.048264 1.211629 0.749473
v -6.048264 1.211629 0.749473
v 6.048264 1.128013 0.749473
v 5.741764 1.158192 -1.414047
v 5.741764 1.241808 1.414047
v 5.741764 1.158192 1.414047
v 5.741764 1.241808 -1.414047
v 5.741764 1.128013 -0.712591
v 5.741764 1.211629 -0.712591
v 5.741764 1.128013 0.749473
v 5.741764 1.211629 0.749473
v 5.895014 1.158192 1.414047
v 5.895014 1.241808 -1.414047
v 5.895014 1.211629 -0.712591
v 5.895014 1.211629 0.749473
v 5.895014 1.158192 -1.414047
v 5.895014 1.241808 1.414047
v 5.895014 1.128013 -0.712591
v 5.895014 1.128013 0.749473
v -5.736508 1.158192 -1.414047
v -5.736508 1.241808 1.414047
v -5.736508 1.128013 -0.712591
v -5.736508 1.128013 0.749473
v -5.736508 1.158192 1.414047
v -5.736508 1.241808 -1.414047
v -5.736508 1.211629 -0.712591
v -5.736508 1.211629 0.749473
v -5.892385 1.158192 -1.414047
v -5.892385 1.241808 1.414047
v -5.892385 1.128013 -0.712591
v -5.892385 1.128013 0.749473
v -5.892385 1.158192 1.414047
v -5.892385 1.241808 -1.414047
v -5.892385 1.211629 -0.712591
v -5.892385 1.211629 0.749473
v 5.895013 0.954010 -0.540315
v 5.741763 0.954010 -0.540315
v 5.895013 0.954010 0.577197
v 5.741763 0.954010 0.577197
v -5.736507 0.954010 -0.540315
v -5.736507 0.954010 0.577197
v -5.892385 0.954010 -0.540315
v -5.892385 0.954010 0.577197
v 5.895013 0.897963 -0.629395
v 5.741763 0.897963 -0.629395
v 5.895013 0.897963 0.666277
v 5.741763 0.897963 0.666277
v -5.736507 0.897963 -0.629395
v -5.736507 0.897963 0.666277
v -5.892385 0.897963 -0.629395
v -5.892385 0.897963 0.666277
v 5.895013 0.839717 -0.629395
v 5.741763 0.839717 -0.629395
v 5.895013 0.839717 0.666277
v 5.741763 0.839717 0.666277
v -5.736507 0.839717 -0.629395
v -5.736507 0.839717 0.666277
v -5.892385 0.839717 -0.629395
v -5.892385 0.839717 0.666277
v 5.895013 0.768285 -0.524986
v 5.741763 0.768285 -0.524986
v 5.895013 0.768285 0.561868
v 5.741763 0.768285 0.561868
v -5.736507 0.768285 -0.524986
v -5.736507 0.768285 0.561868
v -5.892385 0.768285 -0.524986
v -5.892385 0.768285 0.561868
v 5.895012 0.494459 -0.232165
v 5.741762 0.494459 -0.232165
v 5.895012 0.494459 0.269047
v 5.741762 0.494459 0.269047
v -5.736506 0.494459 -0.232165
v -5.736506 0.494459 0.269047
v -5.892384 0.494459 -0.232165
v -5.892384 0.494459 0.269047
v 5.895012 0.205167 -0.105406
v 5.741762 0.205167 -0.105406
v 5.895012 0.205167 0.142288
v 5.741762 0.205167 0.142288
v -5.736506 0.205167 -0.105406
v -5.736506 0.205167 0.142288
v -5.892384 0.205167 -0.105406
v -5.892384 0.205167 0.142288
v 5.895012 0.093970 -0.105406
v 5.741762 0.093970 -0.105406
v 5.895012 0.093970 0.142288
v 5.741762 0.093970 0.142288
v -5.736506 0.093970 -0.105406
v -5.736506 0.093970 0.142288
v -5.892384 0.093970 -0.105406
v -5.892384 0.093970 0.142288
v -5.892384 0.150476 -0.666095
v -5.736506 0.150476 -0.666095
v -5.736506 0.052191 -0.666095
v -5.892384 0.052191 -0.666095
v 5.895012 0.150476 0.702978
v 5.741762 0.150476 0.702978
v 5.741762 0.052191 0.702978
v 5.895012 0.052191 0.702978
v -5.736506 0.150476 0.702978
v -5.892384 0.150476 0.702978
v -5.892384 0.052191 0.702978
v -5.736506 0.052191 0.702978
v 5.741762 0.150476 -0.666095
v 5.895012 0.150476 -0.666095
v 5.895012 0.052191 -0.666095
v 5.741762 0.052191 -0.666095
v -5.892384 0.103001 -0.991671
v -5.736506 0.103001 -0.991671
v -5.736506 0.052191 -0.991671
v -5.892384 0.052191 -0.991671
v 5.895012 0.103001 1.028553
v 5.741762 0.103001 1.028553
v 5.741762 0.052191 1.028553
v 5.895012 0.052191 1.028553
v -5.736506 0.103001 1.028553
v -5.892384 0.103001 1.028553
v -5.892384 0.052191 1.028553
v -5.736506 0.052191 1.028553
v 5.741762 0.103001 -0.991671
v 5.895012 0.103001 -0.991671
v 5.895012 0.052191 -0.991671
v 5.741762 0.052191 -0.991671
vn -0.0000 0.9990 -0.0454
vn -0.0000 -0.0000 1.0000
vn -1.0000 -0.0000 -0.0000
vn -0.0000 -0.9990 0.0454
vn 1.0000 -0.0000 -0.0000
vn -0.0000 -0.0000 -1.0000
vn -0.0000 -0.9991 -0.0430
vn -0.0000 0.9991 0.0430
vn -0.0000 -1.0000 -0.0000
vn -0.0000 1.0000 -0.0000
vn -0.0000 -0.7036 -0.7106
vn -0.0000 0.8464 0.5325
vn -0.0000 -0.7036 0.7106
vn -0.0000 0.8464 -0.5325
vn -0.0000 -0.8253 -0.5647
vn -0.0000 -0.7304 0.6830
vn -0.0000 -0.8253 0.5647
vn -0.0000 -0.4013 0.9159
vn -0.0000 -0.7304 -0.6830
vn -0.0000 -0.4013 -0.9159
vn -0.0000 0.9953 -0.0971
vn -0.0000 -0.9972 0.0743
vn -0.0000 0.9953 0.0971
vn -0.0000 -0.9972 -0.0743
vn -0.0000 0.9895 -0.1443
vn -0.0000 0.9895 0.1443
vt 0.871778 0.691252
vt 0.875000 0.691252
vt 0.875000 0.750000
vt 0.871778 0.750000
vt 0.375000 0.996778
vt 0.625000 0.996778
vt 0.625000 1.000000
vt 0.375000 1.000000
vt 0.375000 0.187992
vt 0.625000 0.187992
vt 0.625000 0.250000
vt 0.375000 0.250000
vt 0.371833 0.691252
vt 0.375000 0.691252
vt 0.375000 0.750000
vt 0.371833 0.750000
vt 0.625000 0.691252
vt 0.625000 0.750000
vt 0.375000 0.496833
vt 0.625000 0.496833
vt 0.625000 0.500000
vt 0.375000 0.500000
vt 0.625000 0.562008
vt 0.375000 0.562008
vt 0.371833 0.500000
vt 0.371833 0.562008
vt 0.375000 0.058748
vt 0.625000 0.058748
vt 0.871778 0.500000
vt 0.875000 0.500000
vt 0.875000 0.562008
vt 0.871778 0.562008
vt 0.375000 0.000000
vt 0.625000 0.000000
vt 0.628167 0.562008
vt 0.631334 0.562008
vt 0.631334 0.691252
vt 0.628167 0.691252
vt 0.131443 0.562008
vt 0.368666 0.562008
vt 0.368666 0.691252
vt 0.131443 0.691252
vt 0.628167 0.500000
vt 0.631334 0.500000
vt 0.131443 0.500000
vt 0.368666 0.500000
vt 0.375000 0.256443
vt 0.625000 0.256443
vt 0.625000 0.493666
vt 0.375000 0.493666
vt 0.368666 0.750000
vt 0.131443 0.750000
vt 0.375000 0.753167
vt 0.625000 0.753167
vt 0.625000 0.756334
vt 0.375000 0.756334
vt 0.631334 0.750000
vt 0.628167 0.750000
vt 0.128222 0.562008
vt 0.128222 0.691252
vt 0.128222 0.750000
vt 0.375000 0.253222
vt 0.625000 0.253222
vt 0.128222 0.500000
vt 0.868557 0.562008
vt 0.868557 0.691252
vt 0.868557 0.500000
vt 0.625000 0.993557
vt 0.375000 0.993557
vt 0.868557 0.750000
vt 0.125000 0.562008
vt 0.125000 0.691252
vt 0.125000 0.500000
vt 0.125000 0.750000
s 0
usemtl Material
f 48/1/1 15/2/1 7/3/1 42/4/1
f 45/5/2 42/6/2 7/7/2 8/8/2
f 9/9/3 11/10/3 5/11/3 6/12/3
f 32/13/4 16/14/4 4/15/4 25/16/4
f 16/14/5 14/17/5 3/18/5 4/15/5
f 29/19/6 26/20/6 1/21/6 2/22/6
f 2/22/5 1/21/5 10/23/5 12/24/5
f 29/25/7 2/22/7 12/24/7 31/26/7
f 13/27/3 15/28/3 11/10/3 9/9/3
f 46/29/8 5/30/8 11/31/8 47/32/8
f 8/33/3 7/34/3 15/28/3 13/27/3
f 12/24/5 10/23/5 14/17/5 16/14/5
f 31/26/9 12/24/9 16/14/9 32/13/9
f 47/32/10 11/31/10 15/2/10 48/1/10
f 27/35/10 22/36/10 24/37/10 28/38/10
f 35/39/9 21/40/9 23/41/9 36/42/9
f 26/43/8 20/44/8 22/36/8 27/35/8
f 33/45/7 17/46/7 21/40/7 35/39/7
f 33/47/6 38/48/6 20/49/6 17/50/6
f 36/42/4 23/41/4 19/51/4 37/52/4
f 25/53/2 30/54/2 18/55/2 19/56/2
f 28/38/1 24/37/1 18/57/1 30/58/1
f 14/17/1 28/38/1 30/58/1 3/18/1
f 4/15/2 3/18/2 30/54/2 25/53/2
f 1/21/8 26/43/8 27/35/8 10/23/8
f 10/23/10 27/35/10 28/38/10 14/17/10
f 43/59/11 35/39/11 53/39/11 55/59/11
f 17/46/7 29/25/7 31/26/7 21/40/7
f 17/50/6 20/49/6 26/20/6 29/19/6
f 23/41/4 32/13/4 25/16/4 19/51/4
f 44/60/4 36/42/4 37/52/4 45/61/4
f 41/62/6 46/63/6 38/48/6 33/47/6
f 41/64/7 33/45/7 35/39/7 43/59/7
f 35/39/5 36/42/5 54/42/5 53/39/5
f 22/36/10 39/65/10 40/66/10 24/37/10
f 20/44/8 38/67/8 39/65/8 22/36/8
f 19/56/2 18/55/2 34/68/2 37/69/2
f 24/37/1 40/66/1 34/70/1 18/57/1
f 9/71/9 43/59/9 44/60/9 13/72/9
f 6/73/7 41/64/7 43/59/7 9/71/7
f 6/12/6 5/11/6 46/63/6 41/62/6
f 13/72/4 44/60/4 45/61/4 8/74/4
f 39/65/10 47/32/10 48/1/10 40/66/10
f 38/67/8 46/29/8 47/32/8 39/65/8
f 37/69/2 34/68/2 42/6/2 45/5/2
f 40/66/1 48/1/1 42/4/1 34/70/1
f 54/42/12 56/60/12 64/60/12 62/42/12
f 51/13/12 52/41/12 60/41/12 59/13/12
f 32/13/13 23/41/13 52/41/13 51/13/13
f 31/26/5 32/13/5 51/13/5 49/26/5
f 21/40/11 31/26/11 49/26/11 50/40/11
f 23/41/3 21/40/3 50/40/3 52/41/3
f 36/42/13 44/60/13 56/60/13 54/42/13
f 44/60/3 43/59/3 55/59/3 56/60/3
f 63/59/6 61/39/6 69/39/6 71/59/6
f 64/60/3 63/59/3 71/59/3 72/60/3
f 53/39/5 54/42/5 62/42/5 61/39/5
f 52/41/3 50/40/3 58/40/3 60/41/3
f 50/40/14 49/26/14 57/26/14 58/40/14
f 56/60/3 55/59/3 63/59/3 64/60/3
f 55/59/14 53/39/14 61/39/14 63/59/14
f 49/26/5 51/13/5 59/13/5 57/26/5
f 66/40/15 65/26/15 73/26/15 74/40/15
f 68/41/3 66/40/3 74/40/3 76/41/3
f 57/26/5 59/13/5 67/13/5 65/26/5
f 59/13/2 60/41/2 68/41/2 67/13/2
f 62/42/2 64/60/2 72/60/2 70/42/2
f 61/39/5 62/42/5 70/42/5 69/39/5
f 60/41/3 58/40/3 66/40/3 68/41/3
f 58/40/6 57/26/6 65/26/6 66/40/6
f 77/39/5 78/42/5 86/42/5 85/39/5
f 78/42/16 80/60/16 88/60/16 86/42/16
f 72/60/3 71/59/3 79/59/3 80/60/3
f 71/59/15 69/39/15 77/39/15 79/59/15
f 65/26/5 67/13/5 75/13/5 73/26/5
f 67/13/17 68/41/17 76/41/17 75/13/17
f 70/42/17 72/60/17 80/60/17 78/42/17
f 69/39/5 70/42/5 78/42/5 77/39/5
f 83/13/18 84/41/18 92/41/18 91/13/18
f 81/26/5 83/13/5 91/13/5 89/26/5
f 76/41/3 74/40/3 82/40/3 84/41/3
f 74/40/19 73/26/19 81/26/19 82/40/19
f 80/60/3 79/59/3 87/59/3 88/60/3
f 79/59/19 77/39/19 85/39/19 87/59/19
f 73/26/5 75/13/5 83/13/5 81/26/5
f 75/13/16 76/41/16 84/41/16 83/13/16
f 96/60/3 95/59/3 103/59/3 104/60/3
f 86/42/18 88/60/18 96/60/18 94/42/18
f 85/39/5 86/42/5 94/42/5 93/39/5
f 84/41/3 82/40/3 90/40/3 92/41/3
f 82/40/20 81/26/20 89/26/20 90/40/20
f 88/60/3 87/59/3 95/59/3 96/60/3
f 87/59/20 85/39/20 93/39/20 95/59/20
f 98/40/9 97/26/9 99/13/9 100/41/9
f 103/59/9 101/39/9 102/42/9 104/60/9
f 89/26/5 91/13/5 99/13/5 97/26/5
f 93/39/5 94/42/5 102/42/5 101/39/5
f 92/41/3 90/40/3 98/40/3 100/41/3
f 93/39/21 106/39/21 105/59/21 95/59/21
f 101/39/5 107/39/5 106/39/5 93/39/5
f 103/59/22 108/59/22 107/39/22 101/39/22
f 95/59/3 105/59/3 108/59/3 103/59/3
f 92/41/23 110/41/23 109/13/23 91/13/23
f 100/41/3 111/41/3 110/41/3 92/41/3
f 99/13/24 112/13/24 111/41/24 100/41/24
f 91/13/5 109/13/5 112/13/5 99/13/5
f 96/60/23 114/60/23 113/42/23 94/42/23
f 104/60/3 115/60/3 114/60/3 96/60/3
f 102/42/24 116/42/24 115/60/24 104/60/24
f 94/42/5 113/42/5 116/42/5 102/42/5
f 89/26/21 118/26/21 117/40/21 90/40/21
f 97/26/5 119/26/5 118/26/5 89/26/5
f 98/40/22 120/40/22 119/26/22 97/26/22
f 90/40/3 117/40/3 120/40/3 98/40/3
f 121/59/6 122/39/6 123/39/6 124/59/6
f 106/39/25 122/39/25 121/59/25 105/59/25
f 107/39/5 123/39/5 122/39/5 106/39/5
f 108/59/9 124/59/9 123/39/9 107/39/9
f 105/59/3 121/59/3 124/59/3 108/59/3
f 125/13/2 126/41/2 127/41/2 128/13/2
f 110/41/26 126/41/26 125/13/26 109/13/26
f 111/41/3 127/41/3 126/41/3 110/41/3
f 112/13/9 128/13/9 127/41/9 111/41/9
f 109/13/5 125/13/5 128/13/5 112/13/5
f 129/42/2 130/60/2 131/60/2 132/42/2
f 114/60/26 130/60/26 129/42/26 113/42/26
f 115/60/3 131/60/3 130/60/3 114/60/3
f 116/42/9 132/42/9 131/60/9 115/60/9
f 113/42/5 129/42/5 132/42/5 116/42/5
f 133/40/6 134/26/6 135/26/6 136/40/6
f 118/26/25 134/26/25 133/40/25 117/40/25
f 119/26/5 135/26/5 134/26/5 118/26/5
f 120/40/9 136/40/9 135/26/9 119/26/9
f 117/40/3 133/40/3 136/40/3 120/40/3
