# Blender 4.3.2
# www.blender.org
mtllib pillar.mtl
o Pillar
v -0.467081 -8.000000 0.467081
v -0.467081 8.000000 0.467081
v -0.467081 -8.000000 -0.467081
v -0.467081 8.000000 -0.467081
v 0.467081 -8.000000 0.467081
v 0.467081 8.000000 0.467081
v 0.467081 -8.000000 -0.467081
v 0.467081 8.000000 -0.467081
v -0.505719 -8.090727 -0.505719
v 0.505719 -8.090727 -0.505719
v 0.505719 -8.090727 0.505719
v -0.505719 -8.090727 0.505719
v 0.505719 8.090727 -0.505719
v -0.505719 8.090727 -0.505719
v -0.505719 8.090727 0.505719
v 0.505719 8.090727 0.505719
v -0.505719 -8.307653 -0.505719
v 0.505719 -8.307653 -0.505719
v 0.505719 -8.307653 0.505719
v -0.505719 -8.307653 0.505719
v 0.505719 8.307653 -0.505719
v -0.505719 8.307653 -0.505719
v -0.505719 8.307653 0.505719
v 0.505719 8.307653 0.505719
v -0.439736 -8.398380 -0.439736
v 0.439736 -8.398380 -0.439736
v 0.439736 -8.398380 0.439736
v -0.439736 -8.398380 0.439736
v 0.439736 8.398380 -0.439736
v -0.439736 8.398380 -0.439736
v -0.439736 8.398380 0.439736
v 0.439736 8.398380 0.439736
v -0.574432 -8.610885 -0.574432
v 0.574432 -8.610885 -0.574432
v 0.574432 -8.610885 0.574432
v -0.574432 -8.610885 0.574432
v 0.574432 8.610885 -0.574432
v -0.574432 8.610885 -0.574432
v -0.574432 8.610885 0.574432
v 0.574432 8.610885 0.574432
v -0.652642 -8.929517 -0.652642
v 0.652642 -8.929517 -0.652642
v 0.652642 -8.929517 0.652642
v -0.652642 -8.929517 0.652642
v 0.652642 8.929517 -0.652642
v -0.652642 8.929517 -0.652642
v -0.652642 8.929517 0.652642
v 0.652642 8.929517 0.652642
vn -1.0000 -0.0000 -0.0000
vn -0.0000 -0.0000 -1.0000
vn 1.0000 -0.0000 -0.0000
vn -0.0000 -0.0000 1.0000
vn -0.0000 -0.5882 -0.8087
vn -0.0000 0.3918 -0.9200
vn 0.9200 0.3918 -0.0000
vn -0.0000 0.3918 0.9200
vn -0.9200 0.3918 -0.0000
vn -0.0000 0.2384 -0.9712
vn -0.0000 -0.3918 -0.9200
vn -0.9200 -0.3918 -0.0000
vn -0.0000 -0.3918 0.9200
vn 0.9200 -0.3918 -0.0000
vn -0.0000 0.5354 -0.8446
vn 0.8087 -0.5882 -0.0000
vn -0.0000 -0.5882 0.8087
vn -0.8087 -0.5882 -0.0000
vn -0.0000 -1.0000 -0.0000
vn -0.0000 0.5882 -0.8087
vn -0.8087 0.5882 -0.0000
vn -0.0000 0.5882 0.8087
vn 0.8087 0.5882 -0.0000
vn 0.8446 0.5354 -0.0000
vn -0.0000 0.5354 0.8446
vn -0.8446 0.5354 -0.0000
vn -0.0000 -0.5354 -0.8446
vn -0.8446 -0.5354 -0.0000
vn -0.0000 -0.5354 0.8446
vn 0.8446 -0.5354 -0.0000
vn 0.9712 0.2384 -0.0000
vn -0.0000 0.2384 0.9712
vn -0.9712 0.2384 -0.0000
vn -0.0000 1.0000 -0.0000
vn -0.0000 -0.2384 -0.9712
vn -0.9712 -0.2384 -0.0000
vn -0.0000 -0.2384 0.9712
vn 0.9712 -0.2384 -0.0000
vt 0.375000 0.000000
vt 0.625000 0.000000
vt 0.625000 0.250000
vt 0.375000 0.250000
vt 0.625000 0.500000
vt 0.375000 0.500000
vt 0.625000 0.750000
vt 0.375000 0.750000
vt 0.625000 1.000000
vt 0.375000 1.000000
vt 0.125000 0.500000
vt 0.125000 0.750000
vt 0.875000 0.500000
vt 0.875000 0.750000
s 0
f 1/1/1 2/2/1 4/3/1 3/4/1
f 3/4/2 4/3/2 8/5/2 7/6/2
f 7/6/3 8/5/3 6/7/3 5/8/3
f 5/8/4 6/7/4 2/9/4 1/10/4
f 18/6/5 26/6/5 25/11/5 17/11/5
f 7/6/6 10/6/6 9/11/6 3/11/6
f 5/8/7 11/8/7 10/6/7 7/6/7
f 1/12/8 12/12/8 11/8/8 5/8/8
f 3/11/9 9/11/9 12/12/9 1/12/9
f 34/6/10 42/6/10 41/11/10 33/11/10
f 4/13/11 14/13/11 13/5/11 8/5/11
f 2/14/12 15/14/12 14/13/12 4/13/12
f 6/7/13 16/7/13 15/14/13 2/14/13
f 8/5/14 13/5/14 16/7/14 6/7/14
f 26/6/15 34/6/15 33/11/15 25/11/15
f 10/6/2 18/6/2 17/11/2 9/11/2
f 11/8/3 19/8/3 18/6/3 10/6/3
f 12/12/4 20/12/4 19/8/4 11/8/4
f 9/11/1 17/11/1 20/12/1 12/12/1
f 14/13/2 22/13/2 21/5/2 13/5/2
f 15/14/1 23/14/1 22/13/1 14/13/1
f 16/7/4 24/7/4 23/14/4 15/14/4
f 13/5/3 21/5/3 24/7/3 16/7/3
f 19/8/16 27/8/16 26/6/16 18/6/16
f 20/12/17 28/12/17 27/8/17 19/8/17
f 17/11/18 25/11/18 28/12/18 20/12/18
f 41/11/19 42/6/19 43/8/19 44/12/19
f 22/13/20 30/13/20 29/5/20 21/5/20
f 23/14/21 31/14/21 30/13/21 22/13/21
f 24/7/22 32/7/22 31/14/22 23/14/22
f 21/5/23 29/5/23 32/7/23 24/7/23
f 27/8/24 35/8/24 34/6/24 26/6/24
f 28/12/25 36/12/25 35/8/25 27/8/25
f 25/11/26 33/11/26 36/12/26 28/12/26
f 30/13/27 38/13/27 37/5/27 29/5/27
f 31/14/28 39/14/28 38/13/28 30/13/28
f 32/7/29 40/7/29 39/14/29 31/14/29
f 29/5/30 37/5/30 40/7/30 32/7/30
f 35/8/31 43/8/31 42/6/31 34/6/31
f 36/12/32 44/12/32 43/8/32 35/8/32
f 33/11/33 41/11/33 44/12/33 36/12/33
f 45/5/34 46/13/34 47/14/34 48/7/34
f 38/13/35 46/13/35 45/5/35 37/5/35
f 39/14/36 47/14/36 46/13/36 38/13/36
f 40/7/37 48/7/37 47/14/37 39/14/37
f 37/5/38 45/5/38 48/7/38 40/7/38
